<?xml version="1.0" standalone="no"?>
<!DOCTYPE svg PUBLIC "-//W3C//DTD SVG 1.1//EN" "http://www.w3.org/Graphics/SVG/1.1/DTD/svg11.dtd" >
<svg xmlns="http://www.w3.org/2000/svg">
<metadata>Generated by IcoMoon</metadata>
<defs>
<font id="iconfont" horiz-adv-x="1024">
<font-face units-per-em="1024" ascent="960" descent="-64" />
<missing-glyph horiz-adv-x="1024" />
<glyph unicode="&#x20;" horiz-adv-x="512" d="" />
<glyph unicode="&#xf000;" glyph-name="affiliate-org" d="M578.562 468.199v66.562c0 36.759-29.803 66.562-66.562 66.562s-66.562-29.803-66.562-66.562v-66.562h-66.562c-36.759 0-66.562-29.803-66.562-66.562s29.803-66.562 66.562-66.562h66.562v-66.562c0-36.759 29.803-66.562 66.562-66.562s66.562 29.803 66.562 66.562v66.562h66.562c36.759 0 66.562 29.803 66.562 66.562s-29.803 66.562-66.562 66.562h-66.562zM113.155 706.207l266.751 152.432c81.849 46.772 182.33 46.772 264.184 0l266.751-152.432c41.478-23.703 67.076-67.808 67.076-115.58v-455.227c0-73.518-59.6-133.118-133.118-133.118h-665.597c-73.518 0-133.118 59.6-133.118 133.118v455.227c0 47.772 25.598 91.877 67.076 115.58z" />
<glyph unicode="&#xf001;" glyph-name="switch-org" d="M893.823 135.412c8.144 0 16.285 3.107 22.499 9.319 12.426 12.426 12.426 32.572 0 44.998l-67.498 67.498c-12.426 12.426-32.572 12.426-44.998 0s-12.426-32.572 0-44.998l13.18-13.18h-114.095c-17.573 0-31.818-14.246-31.818-31.818s14.246-31.818 31.818-31.818h190.911zM925.643 419.544c-37.441 21.658-80.909 34.054-127.274 34.054-140.584 0-254.55-113.965-254.55-254.55 0-76.028 33.33-144.269 86.176-190.911h-467.999c-70.291 0-127.274 56.983-127.274 127.274v488.811c0 50.914 30.342 96.928 77.139 116.984l318.185 136.366c32.015 13.72 68.255 13.72 100.272 0l318.185-136.366c46.797-20.056 77.139-66.070 77.139-116.984v-204.678zM161.997 644.509v-127.274h127.274v127.274h-127.274zM352.908 644.509v-127.274h127.274v127.274h-127.274zM543.819 644.509v-127.274h127.274v127.274h-127.274zM161.997 453.598v-127.274h127.274v127.274h-127.274zM352.908 453.598v-127.274h127.274v127.274h-127.274zM161.997 262.686v-127.274h127.274v127.274h-127.274zM352.908 262.686v-127.274h127.274v127.274h-127.274zM798.367 8.137c-105.436 0-190.911 85.475-190.911 190.911s85.475 190.911 190.911 190.911c105.436 0 190.911-85.475 190.911-190.911s-85.475-190.911-190.911-190.911z" />
<glyph unicode="&#xf002;" glyph-name="switch-dept" d="M102.682 891.429h68.22c37.677 0 68.22-30.543 68.22-68.22v-68.22c0-37.677-30.543-68.22-68.22-68.22h-68.22c-37.677 0-68.22 30.543-68.22 68.22v68.22c0 37.677 30.543 68.22 68.22 68.22zM102.682 550.328h68.22c37.677 0 68.22-30.543 68.22-68.22v-68.22c0-37.677-30.543-68.22-68.22-68.22h-68.22c-37.677 0-68.22 30.543-68.22 68.22v68.22c0 37.677 30.543 68.22 68.22 68.22zM102.682 209.231h68.22c37.677 0 68.22-30.543 68.22-68.22v-68.22c0-37.677-30.543-68.22-68.22-68.22h-68.22c-37.677 0-68.22 30.543-68.22 68.22v68.22c0 37.677 30.543 68.22 68.22 68.22zM443.78 550.328h477.539c37.677 0 68.22-30.543 68.22-68.22v-68.22c0-37.677-30.543-68.22-68.22-68.22h-477.539c-37.677 0-68.22 30.543-68.22 68.22v68.22c0 37.677 30.543 68.22 68.22 68.22zM443.78 891.429h477.539c37.677 0 68.22-30.543 68.22-68.22v-68.22c0-37.677-30.543-68.22-68.22-68.22h-477.539c-37.677 0-68.22 30.543-68.22 68.22v68.22c0 37.677 30.543 68.22 68.22 68.22zM443.78 209.231h477.539c37.677 0 68.22-30.543 68.22-68.22v-68.22c0-37.677-30.543-68.22-68.22-68.22h-477.539c-37.677 0-68.22 30.543-68.22 68.22v68.22c0 37.677 30.543 68.22 68.22 68.22z" />
<glyph unicode="&#xf003;" glyph-name="switch-id" d="M875.672 165.441c7.16 0 14.319 2.731 19.782 8.194 10.925 10.925 10.925 28.639 0 39.563l-59.344 59.344c-10.925 10.925-28.639 10.925-39.563 0s-10.925-28.639 0-39.563l11.588-11.588h-100.312c-15.449 0-27.974-12.525-27.974-27.974s12.525-27.974 27.974-27.974h167.848zM736.892 438.417c-97.080-24.461-168.941-112.351-168.941-217.025 0-81.864 43.956-153.463 109.552-192.482-230.398-60.17-613.099-14.657-613.099 136.531 0 156.615 91.928 291.759 224.772 354.416-35.4 39.586-56.924 91.843-56.924 149.128 0 123.601 100.197 223.799 223.799 223.799s223.799-100.197 223.799-223.799c0-57.286-21.523-109.542-56.924-149.128 42.805-20.19 81.363-47.906 113.966-81.443zM791.748 53.542c-92.7 0-167.848 75.148-167.848 167.848s75.148 167.848 167.848 167.848c92.7 0 167.848-75.148 167.848-167.848s-75.148-167.848-167.848-167.848z" />
<glyph unicode="&#xf004;" glyph-name="homepage" d="M344 588.001v275.435c51.88 21 108.591 32.565 168 32.565 42.627 0 83.866-5.954 122.926-17.074l-290.926-290.926zM492.2 665.789l194.76 194.76c92.040-39.082 168.313-108.066 216.632-194.76h-411.392zM652.001 616h275.435c21-51.88 32.565-108.591 32.565-168 0-42.627-5.954-83.866-17.074-122.926l-290.926 290.926zM729.789 467.8l194.76-194.76c-39.082-92.040-108.066-168.313-194.76-216.632v411.392zM680 307.999v-275.435c-51.88-21-108.591-32.565-168-32.565-42.627 0-83.866 5.954-122.926 17.074l290.926 290.926zM371.999 280h-275.435c-21 51.88-32.565 108.591-32.565 168 0 42.627 5.954 83.866 17.074 122.926l290.926-290.926zM531.8 230.211l-194.76-194.76c-92.040 39.082-168.313 108.066-216.632 194.76h411.392zM294.211 428.2l-194.76 194.76c39.082 92.040 108.066 168.313 194.76 216.632v-411.392z" />
<glyph unicode="&#xf005;" glyph-name="im-camera" d="M236.86 716.373l29.522 68.885c14.927 34.827 49.17 57.408 87.062 57.408h317.11c37.891 0 72.135-22.581 87.062-57.408l29.522-68.885h103.742c52.312 0 94.72-42.408 94.72-94.72v-473.6c0-52.312-42.408-94.72-94.72-94.72h-757.76c-52.312 0-94.72 42.408-94.72 94.72v473.6c0 52.312 42.408 94.72 94.72 94.72h103.742zM511.998 179.627c122.062 0 221.013 98.951 221.013 221.013s-98.951 221.013-221.013 221.013c-122.062 0-221.013-98.951-221.013-221.013s98.951-221.013 221.013-221.013zM511.998 242.773c-87.188 0-157.867 70.679-157.867 157.867s70.679 157.867 157.867 157.867c87.188 0 157.867-70.679 157.867-157.867s-70.679-157.867-157.867-157.867z" />
<glyph unicode="&#xf006;" glyph-name="im-video" d="M767.999 575.999l202.928 177.562c13.3 11.638 33.517 10.29 45.155-3.010 5.104-5.833 7.918-13.321 7.918-21.072v-562.959c0-17.673-14.327-32-32-32-7.751 0-15.239 2.813-21.072 7.918l-202.928 177.562v-128c0-53.019-42.981-96-96-96h-576c-53.019 0-96 42.981-96 96v512c0 53.019 42.981 96 96 96h576c53.019 0 96-42.981 96-96v-128z" />
<glyph unicode="&#xf007;" glyph-name="im-picture" d="M96 832h832c53.019 0 96-42.981 96-96v-576c0-53.019-42.981-96-96-96h-832c-53.019 0-96 42.981-96 96v576c0 53.019 42.981 96 96 96zM96 768c-17.673 0-32-14.327-32-32v-576c0-17.673 14.327-32 32-32h832c17.673 0 32 14.327 32 32v576c0 17.673-14.327 32-32 32h-832zM224 512c-53.019 0-96 42.981-96 96s42.981 96 96 96c53.019 0 96-42.981 96-96s-42.981-96-96-96zM128 288l160 160 96-96 288 288 224-224v-224h-768v96z" />
<glyph unicode="&#xf008;" glyph-name="address" horiz-adv-x="736" d="M368 1.28l-17.354 13.995c-14.554 11.756-346.516 279.9-346.516 515.576 0 200.96 162.91 363.87 363.87 363.87s363.87-162.91 363.87-363.87c0-234.556-331.962-503.82-346.516-515.576l-17.354-13.995zM368 840.98c-169.914-0.308-307.582-137.974-307.89-307.89 0-179.696 240.154-399.137 307.89-456.796 67.736 55.98 307.89 277.1 307.89 456.796-0.308 169.914-137.974 307.582-307.89 307.89zM368 393.14c-92.751 0-167.94 75.189-167.94 167.94s75.189 167.94 167.94 167.94c92.751 0 167.94-75.189 167.94-167.94 0-44.54-17.694-87.257-49.188-118.751s-74.211-49.188-118.751-49.188zM368 673.040c-61.834 0-111.96-50.126-111.96-111.96s50.126-111.96 111.96-111.96c61.834 0 111.96 50.126 111.96 111.96 0 29.694-11.796 58.171-32.792 79.168s-49.474 32.792-79.168 32.792z" />
<glyph unicode="&#xf009;" glyph-name="org" d="M960 64c17.673 0 32-14.327 32-32s-14.327-32-32-32h-896c-17.673 0-32 14.327-32 32s14.327 32 32 32h32v736c0 53.019 42.981 96 96 96h256c53.019 0 96-42.981 96-96v-32c10.604 1.636 21.396 1.636 32 0h256c51.45 0.387 93.93-40.111 96-91.52v-612.48h32zM160 64h320v736c0 17.673-14.327 32-32 32h-256c-17.673 0-32-14.327-32-32v-736zM544 97.92v-33.92h320v609.28c-0.168 8.318-3.634 16.228-9.636 21.989s-14.047 8.902-22.364 8.731h-256c-17.079 0.363-31.307-13.011-32-30.080v-576zM384 704c17.673 0 32-14.327 32-32s-14.327-32-32-32h-128c-17.673 0-32 14.327-32 32s14.327 32 32 32h128zM384 512c17.673 0 32-14.327 32-32s-14.327-32-32-32h-128c-17.673 0-32 14.327-32 32s14.327 32 32 32h128zM384 320c17.673 0 32-14.327 32-32s-14.327-32-32-32h-128c-17.673 0-32 14.327-32 32s14.327 32 32 32h128zM736 320c17.673 0 32-14.327 32-32s-14.327-32-32-32h-64c-17.673 0-32 14.327-32 32s14.327 32 32 32h64zM736 448c17.673 0 32-14.327 32-32s-14.327-32-32-32h-64c-17.673 0-32 14.327-32 32s14.327 32 32 32h64zM736 576c17.673 0 32-14.327 32-32s-14.327-32-32-32h-64c-17.673 0-32 14.327-32 32s14.327 32 32 32h64z" />
<glyph unicode="&#xf00a;" glyph-name="male" d="M921.614 877.531h-256c-17.673 0-32-14.327-32-32 0.34-17.53 14.47-31.66 32-32h178.56l-185.6-186.24c-137.968 126.94-351.372 122.928-484.47-9.11s-138.818-345.403-12.986-484.381c125.832-138.979 338.715-154.42 483.286-35.054s169.701 331.323 57.050 481.185l188.16 187.52v-177.92c0.34-17.53 14.47-31.66 32-32 17.673 0 32 14.327 32 32v256c0 17.673-14.327 32-32 32zM419.854 81.371c-159.058 0-288 128.942-288 288s128.942 288 288 288c159.058 0 288-128.942 288-288-0.352-158.912-129.088-287.648-288-288z" />
<glyph unicode="&#xf00b;" glyph-name="female" d="M839.564 717.63l121.6 121.6c12.274 12.66 12.274 32.78 0 45.44-12.66 12.274-32.78 12.274-45.44 0l-121.6-121.6-120.96 121.6c-12.66 12.274-32.78 12.274-45.44 0-12.274-12.66-12.274-32.78 0-45.44l121.6-121.6-103.040-102.4c-138.923 127.99-353.95 124.053-488.095-8.935s-139.945-347.973-13.164-487.999c126.781-140.027 341.283-155.55 486.904-35.236s170.836 333.893 57.235 484.81l104.96 104.96 121.6-121.6c5.908-6.029 13.959-9.48 22.4-9.6 8.649 0.021 16.935 3.474 23.040 9.6 12.274 12.66 12.274 32.78 0 45.44l-121.6 120.96zM408.204 69.31c-159.058 0-288 128.942-288 288s128.942 288 288 288c159.058 0 288-128.942 288-288s-128.942-288-288-288z" />
<glyph unicode="&#xf00c;" glyph-name="phone" d="M750.934 0h-477.867c-49.484 0-89.6 40.116-89.6 89.6v716.8c0 49.484 40.116 89.6 89.6 89.6h477.867c49.484 0 89.6-40.116 89.6-89.6v-716.8c0-49.484-40.116-89.6-89.6-89.6zM273.068 836.267c-16.495 0-29.867-13.372-29.867-29.867v-716.8c0-16.495 13.372-29.867 29.867-29.867h477.867c16.495 0 29.867 13.372 29.867 29.867v716.8c0 16.495-13.372 29.867-29.867 29.867h-477.867zM721.068 149.333h-418.133c-16.495 0-29.867 13.372-29.867 29.867v597.333c0 16.495 13.372 29.867 29.867 29.867h418.133c16.495 0 29.867-13.372 29.867-29.867v-597.333c0-16.495-13.372-29.867-29.867-29.867zM332.801 209.067h358.4v537.6h-358.4v-537.6zM512.001 75.861c-16.495 0-29.867 13.372-29.867 29.867s13.372 29.867 29.867 29.867c16.495 0 29.867-13.372 29.867-29.867s-13.372-29.867-29.867-29.867z" />
<glyph unicode="&#xf00d;" glyph-name="envelope" horiz-adv-x="1088" d="M966.403 870.403h-844.807c-58.321 0-105.601-47.28-105.601-105.601v-633.605c0-58.321 47.28-105.601 105.601-105.601h844.807c58.321 0 105.601 47.28 105.601 105.601v633.605c0 58.321-47.28 105.601-105.601 105.601zM1001.604 352.254l-237.25 166.145 237.25 168.961v-335.107zM121.596 800.002h844.807c15.004-0.111 28.288-9.721 33.088-23.936l-455.492-328.067-454.788 328.067c4.714 13.976 17.641 23.53 32.384 23.936zM86.396 690.881l237.25-172.481-237.25-166.145v338.627zM966.403 95.996h-844.807c-19.44 0-35.2 15.76-35.2 35.2v136.577h4.928l292.867 211.202 139.393-101.377c12.286-8.493 28.546-8.493 40.832 0l140.801 99.265 292.867-211.202h4.928v-134.465c0.008-9.584-3.894-18.758-10.803-25.401s-16.228-10.182-25.805-9.799z" />
<glyph unicode="&#xf00e;" glyph-name="his" d="M972.8 38.401h-921.599c-28.16 0-51.2 23.040-51.2 51.2v716.799c0 28.16 23.040 51.2 51.2 51.2h921.599c28.16 0 51.2-23.040 51.2-51.2v-716.799c0-28.16-23.040-51.2-51.2-51.2zM972.8 806.4h-921.599v-716.799h921.599v716.799zM179.201 473.6h153.6v153.6h51.2v-358.4h-51.2v153.6h-153.6v-153.6h-51.2v358.4h51.2v-153.6zM614.4 576h-51.2v-255.999h51.2v-51.2h-153.6v51.2h51.2v255.999h-51.2v51.2h153.6v-51.2zM691.199 524.8c0 56.32 46.080 102.4 102.4 102.4s102.4-46.080 102.4-102.4h-51.2c0 28.16-23.040 51.2-51.2 51.2s-51.2-23.040-51.2-51.2c0-28.16 23.040-51.2 51.2-51.2 56.32 0 102.4-46.080 102.4-102.4s-46.080-102.4-102.4-102.4c-56.32 0-102.4 46.080-102.4 102.4h51.2c0-28.16 23.040-51.2 51.2-51.2s51.2 23.040 51.2 51.2c0 28.16-23.040 51.2-51.2 51.2-56.32 0-102.4 46.080-102.4 102.4z" />
<glyph unicode="&#xf00f;" glyph-name="report" d="M972.8 38.401h-921.599c-28.16 0-51.2 23.040-51.2 51.2v716.799c0 28.16 23.040 51.2 51.2 51.2h921.599c28.16 0 51.2-23.040 51.2-51.2v-716.799c0-28.16-23.040-51.2-51.2-51.2zM972.8 806.4h-921.599v-716.799h921.599v716.799zM204.8 703.999h281.6c28.16 0 51.2-23.040 51.2-51.2v-204.8c0-28.16-23.040-51.2-51.2-51.2h-281.6c-28.16 0-51.2 23.040-51.2 51.2v204.8c0 28.16 23.040 51.2 51.2 51.2zM204.8 448h281.6v204.8h-281.6v-204.8zM179.201 345.6h665.6c15.36 0 25.6-10.24 25.6-25.6s-10.24-25.6-25.6-25.6h-665.6c-15.36 0-25.6 10.24-25.6 25.6s10.24 25.6 25.6 25.6zM179.201 243.2h665.6c15.36 0 25.6-10.24 25.6-25.6s-10.24-25.6-25.6-25.6h-665.6c-15.36 0-25.6 10.24-25.6 25.6s10.24 25.6 25.6 25.6zM844.799 396.8h-230.4c-15.36 0-25.6 10.24-25.6 25.6s10.24 25.6 25.6 25.6h230.4c15.36 0 25.6-10.24 25.6-25.6s-10.24-25.6-25.6-25.6zM844.799 550.4h-230.4c-15.36 0-25.6 10.24-25.6 25.6s10.24 25.6 25.6 25.6h230.4c15.36 0 25.6-10.24 25.6-25.6s-10.24-25.6-25.6-25.6zM844.799 652.8h-230.4c-15.36 0-25.6 10.24-25.6 25.6s10.24 25.6 25.6 25.6h230.4c15.36 0 25.6-10.24 25.6-25.6s-10.24-25.6-25.6-25.6z" />
<glyph unicode="&#xf010;" glyph-name="image" d="M972.8 38.401h-921.599c-28.16 0-51.2 23.040-51.2 51.2v716.799c0 28.16 23.040 51.2 51.2 51.2h921.599c28.16 0 51.2-23.040 51.2-51.2v-716.799c0-28.16-23.040-51.2-51.2-51.2zM972.8 89.6v99.84c0 0-2.56 0-2.56 2.56l-245.76 250.88-120.32-161.28c-10.24-7.68-25.6-10.24-35.84 0l-209.919 261.12-307.2-250.88v-202.239h921.599zM51.2 806.4v-447.999l289.28 238.080c5.12 5.12 12.8 7.68 17.92 7.68 7.68 0 12.8-2.56 17.92-10.24l212.48-261.12 122.88 161.28c10.24 7.68 25.6 7.68 33.28-2.56l227.84-230.4v545.28h-921.599zM691.199 576c-28.16 0-51.2 23.040-51.2 51.2s23.040 51.2 51.2 51.2c28.16 0 51.2-23.040 51.2-51.2s-23.040-51.2-51.2-51.2z" />
<glyph unicode="&#xf011;" glyph-name="attachment" horiz-adv-x="928" d="M149.965 32.866c-32.619 0-65.238 15.055-90.33 42.657-55.2 60.22-52.693 153.058 7.527 210.77l534.45 534.45c72.767 67.747 180.66 57.711 255.934-22.583 35.128-35.128 52.693-87.821 50.184-140.514s-25.091-102.876-60.22-138.003l-424.047-421.537c-10.036-10.036-25.091-10.036-35.128 0s-10.036 25.091 0 35.128l421.537 424.047c27.601 25.091 42.657 62.729 45.164 102.876s-12.547 77.783-35.128 105.384c-47.673 50.184-122.949 77.783-183.167 20.074l-536.96-536.96c-40.146-37.637-42.657-100.366-5.018-140.514 17.563-17.563 37.637-25.091 60.22-25.091s45.164 12.547 65.238 30.11l441.611 441.611c12.547 12.547 40.146 42.657 15.055 70.256-15.055 15.055-25.091 15.055-27.601 15.055-10.036 0-22.583-7.527-35.128-17.563l-348.773-351.281c-10.036-10.036-25.091-10.036-35.128 0s-10.036 25.091 0 35.128l348.773 348.773c22.583 20.074 42.657 32.619 65.238 32.619 17.563 0 42.657-2.509 67.747-30.11 37.637-40.146 30.11-97.857-17.563-143.022l-436.593-439.102c-30.11-27.601-65.238-42.657-97.857-45.164-5.018 2.509-7.527 2.509-10.036 2.509z" />
<glyph unicode="&#xf012;" glyph-name="discover" horiz-adv-x="768" d="M197.334 366.964c31.993-11.309 57.315-36.74 68.473-68.806 2.015 0.336 4.084 0.51 6.193 0.51h410.666c20.619 0 37.334-16.715 37.334-37.334s-16.715-37.334-37.334-37.334h-410.666c-2.111 0-4.178 0.174-6.193 0.51-10.697-30.743-34.415-55.388-64.551-67.335 12.945-47.548 56.426-82.511 108.077-82.511h373.334c20.619 0 37.334-16.715 37.334-37.334s-16.715-37.334-37.334-37.334h-597.333c-20.619 0-37.334 16.715-37.334 37.334s16.715 37.334 37.334 37.334h74.652c-17.373 23.129-29.498 50.426-34.608 80.121-44.911 14.584-77.378 56.773-77.378 106.545 0 48.765 31.166 90.253 74.666 105.627v155.707c0 103.094 83.572 186.666 186.666 186.666h112c0 41.236 33.43 74.666 74.666 74.666h74.666c41.236 0 74.666-33.43 74.666-74.666v-224c0-41.236-33.43-74.666-74.666-74.666h-74.666c-41.236 0-74.666 33.43-74.666 74.666v149.334h-112c-61.855 0-112-50.145-112-112v-155.707zM496 709.337v-224h74.666v224h-74.666zM160 224.003c20.619 0 37.334 16.715 37.334 37.334s-16.715 37.334-37.334 37.334c-20.619 0-37.334-16.715-37.334-37.334s16.715-37.334 37.334-37.334zM496 896.003h74.666c20.619 0 37.334-16.715 37.334-37.334s-16.715-37.334-37.334-37.334h-74.666c-20.619 0-37.334 16.715-37.334 37.334s16.715 37.334 37.334 37.334z" />
<glyph unicode="&#xf013;" glyph-name="mine" horiz-adv-x="736" d="M404.323 742.404h34.556v-69.112h-34.556v-34.556h-69.112v34.556h-34.556v69.112h34.556v34.556h69.112v-34.556zM611.659 535.068c0-47.746-13.895-93.516-39.559-132.608-44.415-67.651-119.855-109.284-202.333-109.284-0.424 0-0.848 0.001-1.271 0.003-0.16-0.002-0.32-0.003-0.481-0.003-69.911 0-135.673-26.008-186.269-72.172-49.692-45.341-81.451-107.165-88.621-174.72-2.014-18.978-19.032-32.73-38.009-30.716s-32.73 19.032-30.716 38.009c8.968 84.51 48.698 161.849 110.764 218.48 29.184 26.628 62.443 47.902 98.387 63.090-63.798 43.552-105.677 116.846-105.677 199.92l22.109 221.089c7.066 70.661 66.526 124.471 137.538 124.471h164.49c71.013 0 130.472-53.81 137.538-124.471l22.109-221.089zM542.547 535.068h-345.56c0-95.424 77.356-172.78 172.78-172.78 58.949 0 112.79 29.713 144.56 78.103 18.322 27.908 28.22 60.513 28.22 94.677zM595.666 276.709c64.903-56.873 106.635-136.020 115.93-222.8 2.032-18.977-11.704-36.007-30.679-38.040s-36.007 11.704-38.040 30.679c-7.43 69.369-40.793 132.644-92.759 178.18-14.354 12.577-15.793 34.41-3.216 48.764s34.41 15.793 48.764 3.216zM520.781 749.281c-3.533 35.33-33.262 62.235-68.769 62.235h-164.49c-35.506 0-65.236-26.905-68.769-62.235l-14.51-145.101h331.049l-14.51 145.101z" />
<glyph unicode="&#xf014;" glyph-name="message" horiz-adv-x="896" d="M204.773 296.874c19.19 0 34.747-15.557 34.747-34.747s-15.557-34.747-34.747-34.747c-95.951 0-173.733 77.783-173.733 173.733v277.973c0 95.951 77.783 173.733 173.733 173.733h486.453c95.951 0 173.733-77.783 173.733-173.733v-277.973c0-95.951-77.783-173.733-173.733-173.733h-273.63c-19.19 0-34.747 15.557-34.747 34.747s15.557 34.747 34.747 34.747h273.63c57.57 0 104.24 46.67 104.24 104.24v277.973c0 57.57-46.67 104.24-104.24 104.24h-486.453c-57.57 0-104.24-46.67-104.24-104.24v-277.973c0-57.57 46.67-104.24 104.24-104.24zM379.861 271.767c4.178 14.5 17.547 25.107 33.392 25.107h80.917l-211.598-241.827c-12.637-14.442-34.588-15.905-49.031-3.268s-15.905 34.588-3.268 49.031l149.589 170.958zM239.519 470.607c-38.38 0-69.493 31.113-69.493 69.493s31.113 69.493 69.493 69.493c38.38 0 69.493-31.113 69.493-69.493s-31.113-69.493-69.493-69.493zM447.999 470.607c-38.38 0-69.493 31.113-69.493 69.493s31.113 69.493 69.493 69.493c38.38 0 69.493-31.113 69.493-69.493s-31.113-69.493-69.493-69.493zM656.479 470.607c-38.38 0-69.493 31.113-69.493 69.493s31.113 69.493 69.493 69.493c38.38 0 69.493-31.113 69.493-69.493s-31.113-69.493-69.493-69.493z" />
<glyph unicode="&#xf015;" glyph-name="home" horiz-adv-x="896" d="M604.901 101.916h117.676c43.327 0 78.451 35.124 78.451 78.451v353.029c0 21.663 17.562 39.225 39.225 39.225s39.225-17.562 39.225-39.225v-353.029c0-86.653-70.248-156.901-156.901-156.901h-156.901c-21.663 0-39.225 17.562-39.225 39.225v235.352h-156.901v-235.352c0-21.663-17.562-39.225-39.225-39.225h-156.901c-86.653 0-156.901 70.248-156.901 156.901v397.977c0 59.516 33.654 113.797 87.148 140.544l274.163 137.081c44.172 22.086 96.164 22.086 140.338 0l274.577-137.289c19.376-9.689 27.23-33.25 17.543-52.627s-33.25-27.23-52.627-17.543l-274.577 137.289c-22.086 11.044-48.083 11.044-70.168 0l-274.163-137.081c-26.954-13.477-43.782-40.618-43.782-70.376v-397.977c0-43.327 35.124-78.451 78.451-78.451h117.676v274.577h313.804v-274.577zM487.225 651.071h39.225c21.663 0 39.225-17.562 39.225-39.225s-17.562-39.225-39.225-39.225h-39.225v-39.225c0-21.663-17.562-39.225-39.225-39.225s-39.225 17.562-39.225 39.225v39.225h-39.225c-21.663 0-39.225 17.562-39.225 39.225s17.562 39.225 39.225 39.225h39.225v39.225c0 21.663 17.562 39.225 39.225 39.225s39.225-17.562 39.225-39.225v-39.225z" />
<glyph unicode="&#xf016;" glyph-name="smile" d="M512 10.667c-241.533 0-437.333 195.801-437.333 437.333s195.801 437.333 437.333 437.333c241.533 0 437.333-195.801 437.333-437.333s-195.801-437.333-437.333-437.333zM512 90.182c197.617 0 357.818 160.201 357.818 357.818s-160.201 357.818-357.818 357.818c-197.617 0-357.818-160.201-357.818-357.818s160.201-357.818 357.818-357.818zM372.849 487.758c-32.936 0-59.636 26.7-59.636 59.636s26.7 59.636 59.636 59.636c32.936 0 59.636-26.7 59.636-59.636s-26.7-59.636-59.636-59.636zM651.151 487.758c-32.936 0-59.636 26.7-59.636 59.636s26.7 59.636 59.636 59.636c32.936 0 59.636-26.7 59.636-59.636s-26.7-59.636-59.636-59.636zM321.371 304.599c-13.326 17.451-9.982 42.401 7.469 55.727s42.401 9.982 55.727-7.469c30.226-39.585 77.597-63.886 127.432-63.886 50.293 0 97.28 24.053 127.33 63.752 13.252 17.508 38.188 20.958 55.695 7.705s20.958-38.188 7.705-55.695c-44.877-59.289-115.181-95.277-190.73-95.277-75.065 0-145.613 36.193-190.629 95.144z" />
<glyph unicode="&#xf017;" glyph-name="cooperation" d="M419.556 632.889h46.223v-92.444h-46.223v-46.223h-92.444v46.223h-46.223v92.444h46.223v46.223h92.444v-46.223zM327.111 216.889v-184.889h-277.333v693.333c0 76.583 62.084 138.667 138.667 138.667h369.777c76.583 0 138.667-62.084 138.667-138.667v-693.333h-277.333v184.889h-92.444zM512 124.444h92.444v600.889c0 25.528-20.695 46.223-46.223 46.223h-369.777c-25.528 0-46.223-20.695-46.223-46.223v-600.889h92.444v184.889h277.333v-184.889zM881.777 124.444v416c0 25.528-20.695 46.223-46.223 46.223h-92.444v92.444h92.444c76.583 0 138.667-62.084 138.667-138.667v-508.444h-231.111v92.444h138.667z" />
<glyph unicode="&#xf018;" glyph-name="evaluation" d="M555.298 18.385c-18.003-23.914-51.98-28.707-75.894-10.705-4.051 3.049-7.656 6.654-10.705 10.705l-91.893 122.073h-244.187c-59.866 0-108.394 48.531-108.394 108.394v541.975c0 59.866 48.531 108.394 108.394 108.394h758.762c59.866 0 108.394-48.531 108.394-108.394v-541.975c0-59.866-48.531-108.394-108.394-108.394h-244.187l-91.893-122.073zM593.114 248.855h298.268v541.975h-758.762v-541.975h298.268l81.117-107.757 81.117 107.757zM295.207 574.038c29.933 0 54.199-24.266 54.199-54.199s-24.266-54.199-54.199-54.199c-29.933 0-54.199 24.266-54.199 54.199s24.266 54.199 54.199 54.199zM511.997 574.038c29.933 0 54.199-24.266 54.199-54.199s-24.266-54.199-54.199-54.199c-29.933 0-54.199 24.266-54.199 54.199s24.266 54.199 54.199 54.199zM728.786 574.038c29.933 0 54.199-24.266 54.199-54.199s-24.266-54.199-54.199-54.199c-29.933 0-54.199 24.266-54.199 54.199s24.266 54.199 54.199 54.199z" />
<glyph unicode="&#xf019;" glyph-name="plus" d="M554.667 490.667h341.333c23.564 0 42.667-19.103 42.667-42.667s-19.103-42.667-42.667-42.667h-341.333v-341.333c0-23.564-19.103-42.667-42.667-42.667s-42.667 19.103-42.667 42.667v341.333h-341.333c-23.564 0-42.667 19.103-42.667 42.667s19.103 42.667 42.667 42.667h341.333v341.333c0 23.564 19.103 42.667 42.667 42.667s42.667-19.103 42.667-42.667v-341.333z" />
<glyph unicode="&#xf01a;" glyph-name="user" d="M512.001 497.778c82.474 0 149.334 66.86 149.334 149.334s-66.86 149.334-149.334 149.334c-82.474 0-149.334-66.86-149.334-149.334s66.86-149.334 149.334-149.334zM342.693 464.681c-48.95 45.45-79.58 110.364-79.58 182.431 0 137.457 111.431 248.889 248.889 248.889s248.889-111.431 248.889-248.889c0-72.067-30.63-136.979-79.58-182.431 163.489-66.783 278.692-227.389 278.692-414.903 0-27.492-22.287-49.779-49.779-49.779s-49.779 22.287-49.779 49.779c0 192.441-156.004 348.445-348.445 348.445s-348.445-156.004-348.445-348.445c0-27.492-22.287-49.779-49.779-49.779s-49.779 22.287-49.779 49.779c0 187.514 115.203 348.12 278.69 414.903z" />
<glyph unicode="&#xf01b;" glyph-name="sort" d="M341.446 728.994l-108.183-108.183c-16.662-16.662-43.677-16.662-60.34 0s-16.662 43.677 0 60.34l181.019 181.019c7.721 7.721 18.388 12.497 30.17 12.497 23.564 0 42.667-19.103 42.667-42.667v-768c0-23.564-19.103-42.667-42.667-42.667s-42.667 19.103-42.667 42.667v664.994zM682.667 167.006l108.183 108.183c16.662 16.662 43.677 16.662 60.34 0s16.662-43.677 0-60.34l-181.019-181.019c-7.721-7.721-18.388-12.497-30.17-12.497-23.564 0-42.667 19.103-42.667 42.667v768c0 23.564 19.103 42.667 42.667 42.667s42.667-19.103 42.667-42.667v-664.994z" />
<glyph unicode="&#xf01c;" glyph-name="users" d="M395.922 471.215c76.93 0 139.294 62.365 139.294 139.294s-62.365 139.294-139.294 139.294c-76.93 0-139.294-62.365-139.294-139.294s62.365-139.294 139.294-139.294zM241.101 437.512c-47.467 42.509-77.335 104.265-77.335 172.998 0 128.217 103.941 232.156 232.156 232.156s232.156-103.941 232.156-232.156c0-68.733-29.869-130.489-77.335-172.998 127.847-58.7 216.63-187.856 216.63-337.747 0-25.643-20.789-46.432-46.432-46.432s-46.432 20.789-46.432 46.432c0 153.86-124.728 278.588-278.588 278.588s-278.588-124.728-278.588-278.588c0-25.643-20.789-46.432-46.432-46.432s-46.432 20.789-46.432 46.432c0 149.891 88.783 279.046 216.63 337.747zM999.53 204.235c0-25.643-20.789-46.432-46.432-46.432s-46.432 20.789-46.432 46.432c0 101.874-66.22 190.959-161.787 221.313-38.805 12.325-44.083 65.072-8.49 84.842 40.309 22.39 65.807 64.799 65.807 111.727 0 70.519-57.167 127.686-127.686 127.686-25.643 0-46.432 20.789-46.432 46.432s20.789 46.432 46.432 46.432c121.806 0 220.549-98.743 220.549-220.549 0-52.612-18.596-101.977-50.678-140.697 94.298-57.84 155.149-161.625 155.149-277.185z" />
<glyph unicode="&#xf01d;" glyph-name="scan" d="M185.599 632.889c0-25.528-20.695-46.223-46.223-46.223s-46.223 20.695-46.223 46.223v92.444c0 76.583 62.084 138.667 138.667 138.667h98.134c25.528 0 46.223-20.695 46.223-46.223s-20.695-46.223-46.223-46.223h-98.134c-25.528 0-46.223-20.695-46.223-46.223v-92.444zM185.599 263.111v-92.444c0-25.528 20.695-46.223 46.223-46.223h98.134c25.528 0 46.223-20.695 46.223-46.223s-20.695-46.223-46.223-46.223h-98.134c-76.583 0-138.667 62.084-138.667 138.667v92.444c0 25.528 20.695 46.223 46.223 46.223s46.223-20.695 46.223-46.223zM838.401 632.889v92.444c0 25.528-20.695 46.223-46.223 46.223h-98.134c-25.528 0-46.223 20.695-46.223 46.223s20.695 46.223 46.223 46.223h98.134c76.583 0 138.667-62.084 138.667-138.667v-92.444c0-25.528-20.695-46.223-46.223-46.223s-46.223 20.695-46.223 46.223zM838.401 263.111c0 25.528 20.695 46.223 46.223 46.223s46.223-20.695 46.223-46.223v-92.444c0-76.583-62.084-138.667-138.667-138.667h-98.134c-25.528 0-46.223 20.695-46.223 46.223s20.695 46.223 46.223 46.223h98.134c25.528 0 46.223 20.695 46.223 46.223v92.444zM139.378 401.777c-25.528 0-46.223 20.695-46.223 46.223s20.695 46.223 46.223 46.223h739.556c25.528 0 46.223-20.695 46.223-46.223s-20.695-46.223-46.223-46.223h-739.556z" />
<glyph unicode="&#xf01e;" glyph-name="setting" d="M357.802 781.083l1.027 9.239c5.335 48.017 45.922 84.344 94.235 84.344h114.718c48.313 0 88.9-36.327 94.235-84.344l1.027-9.239c2.602-23.42 23.697-40.296 47.117-37.694 4.281 0.476 8.465 1.597 12.411 3.325l8.515 3.731c44.252 19.388 96.005 2.402 120.162-39.438l57.359-99.349c24.156-41.84 12.99-95.153-25.927-123.782l-7.488-5.509c-18.981-13.964-23.049-40.671-9.085-59.652 2.552-3.47 5.616-6.533 9.085-9.085l7.488-5.509c38.917-28.629 50.083-81.942 25.927-123.782l-57.359-99.349c-24.156-41.84-75.91-58.826-120.162-39.438l-8.515 3.731c-21.583 9.456-46.746-0.374-56.203-21.958-1.729-3.945-2.85-8.13-3.325-12.411l-1.027-9.239c-5.335-48.017-45.922-84.344-94.235-84.344h-114.718c-48.313 0-88.9 36.327-94.235 84.344l-1.027 9.239c-2.602 23.42-23.697 40.296-47.117 37.694-4.281-0.476-8.465-1.597-12.411-3.325l-8.515-3.731c-44.252-19.388-96.005-2.402-120.162 39.438l-57.359 99.349c-24.156 41.84-12.99 95.153 25.927 123.782l7.488 5.509c18.981 13.964 23.049 40.671 9.085 59.652-2.552 3.47-5.616 6.533-9.085 9.085l-7.488 5.509c-38.917 28.629-50.083 81.942-25.927 123.782l57.359 99.349c24.156 41.84 75.91 58.826 120.162 39.438l8.515-3.731c21.583-9.456 46.746 0.374 56.203 21.958 1.729 3.945 2.85 8.13 3.325 12.411zM442.614 771.66c-1.427-12.843-4.791-25.396-9.976-37.232-28.369-64.75-103.858-94.243-168.608-65.874l-8.515 3.731c-4.425 1.939-9.601 0.24-12.016-3.944l-57.359-99.349c-2.416-4.184-1.299-9.515 2.593-12.378l7.488-5.509c10.409-7.657 19.598-16.847 27.256-27.256 41.891-56.944 29.688-137.065-27.256-178.956l-7.488-5.509c-3.892-2.863-5.008-8.194-2.593-12.378l57.359-99.349c2.416-4.184 7.591-5.883 12.016-3.944l8.515 3.731c11.836 5.186 24.389 8.549 37.232 9.976 70.26 7.807 133.546-42.822 141.352-113.082l1.027-9.239c0.534-4.802 4.592-8.434 9.423-8.434h114.718c4.831 0 8.89 3.633 9.423 8.434l1.027 9.239c1.427 12.843 4.791 25.396 9.976 37.232 28.369 64.75 103.858 94.243 168.608 65.874l8.515-3.731c4.425-1.939 9.601-0.24 12.016 3.944l57.359 99.349c2.416 4.184 1.299 9.515-2.593 12.378l-7.488 5.509c-10.409 7.657-19.598 16.847-27.256 27.256-41.891 56.944-29.688 137.065 27.256 178.956l7.488 5.509c3.892 2.863 5.008 8.194 2.593 12.378l-57.359 99.349c-2.416 4.184-7.591 5.883-12.016 3.944l-8.515-3.731c-11.836-5.186-24.389-8.549-37.232-9.976-70.26-7.807-133.546 42.822-141.352 113.082l-1.027 9.239c-0.534 4.802-4.592 8.434-9.423 8.434h-114.718c-4.831 0-8.89-3.633-9.423-8.434l-1.027-9.239zM512 277.333c-94.257 0-170.667 76.41-170.667 170.667s76.41 170.667 170.667 170.667c94.257 0 170.667-76.41 170.667-170.667s-76.41-170.667-170.667-170.667zM512 362.667c47.128 0 85.333 38.205 85.333 85.333s-38.205 85.333-85.333 85.333c-47.128 0-85.333-38.205-85.333-85.333s38.205-85.333 85.333-85.333z" />
<glyph unicode="&#xf01f;" glyph-name="volume" d="M745.437 127.276c-20.827-11.023-46.646-3.075-57.669 17.752s-3.075 46.646 17.752 57.669c90.208 47.744 147.813 141.406 147.813 245.303 0 102.611-56.177 195.292-144.641 243.598-20.682 11.293-28.292 37.214-16.999 57.896s37.214 28.292 57.896 16.999c115.592-63.119 189.078-184.356 189.078-318.493 0-135.822-75.348-258.335-193.228-320.724zM660.447 275.532c-21.157-10.375-46.719-1.634-57.094 19.523s-1.634 46.719 19.523 57.094c36.306 17.803 59.789 54.707 59.789 95.851 0 41.118-23.452 78.002-59.723 95.819-21.15 10.389-29.873 35.957-19.484 57.107s35.957 29.873 57.107 19.484c65.205-32.030 107.433-98.442 107.433-172.41 0-74.015-42.282-140.462-107.551-172.468zM481.828 865.83c16.662 16.662 43.677 16.662 60.34 0 8.002-8.002 12.497-18.854 12.497-30.17v-775.32c0-23.564-19.103-42.667-42.667-42.667-11.316 0-22.168 4.495-30.17 12.497l-225.83 225.83h-85.333c-47.128 0-85.333 38.205-85.333 85.333v213.333c0 47.128 38.205 85.333 85.333 85.333h85.333l225.83 225.83zM469.331 163.347v569.308l-177.987-177.987h-120.68v-213.333h120.68l177.987-177.987z" />
<glyph unicode="&#xf020;" glyph-name="sns" d="M512 21.333c-235.641 0-426.667 191.025-426.667 426.667s191.025 426.667 426.667 426.667c235.641 0 426.667-191.025 426.667-426.667s-191.025-426.667-426.667-426.667zM512 106.667c188.513 0 341.333 152.82 341.333 341.333s-152.82 341.333-341.333 341.333c-188.513 0-341.333-152.82-341.333-341.333s152.82-341.333 341.333-341.333zM512 362.667c-94.257 0-170.667 76.41-170.667 170.667s76.41 170.667 170.667 170.667c94.257 0 170.667-76.41 170.667-170.667s-76.41-170.667-170.667-170.667zM512 448c47.128 0 85.333 38.205 85.333 85.333s-38.205 85.333-85.333 85.333c-47.128 0-85.333-38.205-85.333-85.333s38.205-85.333 85.333-85.333zM814.518 236.878c16.617-16.707 16.544-43.722-0.163-60.34s-43.722-16.544-60.34 0.163c-63.681 64.026-149.894 100.632-242.015 100.632-92.052 0-178.206-36.551-241.875-100.491-16.627-16.698-43.642-16.755-60.34-0.128s-16.755 43.642-0.128 60.34c79.524 79.862 187.362 125.613 302.343 125.613 115.067 0 222.98-45.82 302.518-125.789z" />
<glyph unicode="&#xf021;" glyph-name="search" d="M762.669 257.671l170.194-170.194c16.662-16.662 16.662-43.677 0-60.34s-43.677-16.662-60.34 0l-170.194 170.194c-65.693-52.549-149.021-83.972-239.688-83.972-212.077 0-384 171.923-384 384s171.923 384 384 384c212.077 0 384-171.923 384-384 0-90.667-31.423-173.995-83.972-239.688zM462.641 198.692c164.949 0 298.667 133.718 298.667 298.667s-133.718 298.667-298.667 298.667c-164.949 0-298.667-133.718-298.667-298.667s133.718-298.667 298.667-298.667z" />
<glyph unicode="&#xf022;" glyph-name="bill" d="M234.667 864h554.667c76.583 0 138.667-62.084 138.667-138.667v-554.667c0-76.583-62.084-138.667-138.667-138.667h-554.667c-76.583 0-138.667 62.084-138.667 138.667v554.667c0 76.583 62.084 138.667 138.667 138.667zM234.667 771.556c-25.528 0-46.223-20.695-46.223-46.223v-554.667c0-25.528 20.695-46.223 46.223-46.223h554.667c25.528 0 46.223 20.695 46.223 46.223v554.667c0 25.528-20.695 46.223-46.223 46.223h-554.667zM327.111 679.111h46.223c25.528 0 46.223-20.695 46.223-46.223s-20.695-46.223-46.223-46.223h-46.223c-25.528 0-46.223 20.695-46.223 46.223s20.695 46.223 46.223 46.223zM327.111 494.223h46.223c25.528 0 46.223-20.695 46.223-46.223s-20.695-46.223-46.223-46.223h-46.223c-25.528 0-46.223 20.695-46.223 46.223s20.695 46.223 46.223 46.223zM327.111 309.333h46.223c25.528 0 46.223-20.695 46.223-46.223s-20.695-46.223-46.223-46.223h-46.223c-25.528 0-46.223 20.695-46.223 46.223s20.695 46.223 46.223 46.223zM512 679.111h184.889c25.528 0 46.223-20.695 46.223-46.223s-20.695-46.223-46.223-46.223h-184.889c-25.528 0-46.223 20.695-46.223 46.223s20.695 46.223 46.223 46.223zM512 494.223h184.889c25.528 0 46.223-20.695 46.223-46.223s-20.695-46.223-46.223-46.223h-184.889c-25.528 0-46.223 20.695-46.223 46.223s20.695 46.223 46.223 46.223zM512 309.333h184.889c25.528 0 46.223-20.695 46.223-46.223s-20.695-46.223-46.223-46.223h-184.889c-25.528 0-46.223 20.695-46.223 46.223s20.695 46.223 46.223 46.223z" />
<glyph unicode="&#xf023;" glyph-name="notification" d="M399.513 90.181h224.972c-16.374-46.325-60.554-79.515-112.486-79.515s-96.112 33.19-112.486 79.515zM233.696 409.034v237.754c0 133.512 126.041 238.545 278.303 238.545s278.303-105.034 278.303-238.545v-237.754c74.846-51.030 119.273-121.854 119.273-199.58v-39.758h-795.151v39.758c0 77.725 44.427 148.549 119.273 199.58zM730.174 353.117l-19.386 11.568v282.103c0 86.064-87.56 159.031-198.788 159.031s-198.788-72.967-198.788-159.031v-282.103l-19.386-11.568c-48.109-28.706-80.171-65.063-93.247-103.905h622.842c-13.076 38.841-45.138 75.2-93.247 103.905z" />
<glyph unicode="&#xf024;" glyph-name="group" d="M373.327 413.907c-45.682 39.127-74.63 97.229-74.63 162.093 0 117.821 95.513 213.333 213.333 213.333s213.333-95.513 213.333-213.333c0-64.864-28.948-122.966-74.63-162.093 95.101-49.96 159.963-149.692 159.963-264.574 0-23.564-19.103-42.667-42.667-42.667s-42.667 19.103-42.667 42.667c0 117.821-95.513 213.333-213.333 213.333s-213.333-95.513-213.333-213.333c0-23.564-19.103-42.667-42.667-42.667s-42.667 19.103-42.667 42.667c0 114.882 64.862 214.614 159.963 264.574zM0.020 213.887c0 88.233 45.036 167.748 115.451 214.034-22.529 29.868-35.451 66.79-35.451 105.966 0 77.785 50.904 145.664 124.136 168.222 22.52 6.937 46.399-5.696 53.336-28.216s-5.696-46.399-28.216-53.336c-37.684-11.608-63.923-46.598-63.923-86.67 0-33.327 18.102-63.436 46.734-79.34 32.707-18.168 27.857-66.637-7.802-77.963-70.249-22.313-118.932-87.805-118.932-162.697 0-23.564-19.103-42.667-42.667-42.667s-42.667 19.103-42.667 42.667zM1023.981 213.887c0-23.564-19.103-42.667-42.667-42.667s-42.667 19.103-42.667 42.667c0 74.891-48.683 140.384-118.932 162.697-35.659 11.326-40.509 59.796-7.802 77.963 28.632 15.904 46.734 46.013 46.734 79.34 0 40.072-26.24 75.062-63.923 86.67-22.52 6.937-35.152 30.816-28.216 53.336s30.816 35.152 53.336 28.216c73.232-22.558 124.136-90.437 124.136-168.222 0-39.176-12.922-76.098-35.451-105.966 70.415-46.286 115.451-125.802 115.451-214.034zM512.031 448c70.692 0 128 57.308 128 128s-57.308 128-128 128c-70.692 0-128-57.308-128-128s57.308-128 128-128z" />
<glyph unicode="&#xf025;" glyph-name="angle-left" horiz-adv-x="384" d="M358.286 649.143c0-4.571-2.286-9.714-5.714-13.143l-224.571-224.571 224.571-224.571c3.429-3.429 5.714-8.571 5.714-13.143s-2.286-9.714-5.714-13.143l-28.571-28.571c-3.429-3.429-8.571-5.714-13.143-5.714s-9.714 2.286-13.143 5.714l-266.286 266.286c-3.429 3.429-5.714 8.571-5.714 13.143s2.286 9.714 5.714 13.143l266.286 266.286c3.429 3.429 8.571 5.714 13.143 5.714s9.714-2.286 13.143-5.714l28.571-28.571c3.429-3.429 5.714-8 5.714-13.143z" />
<glyph unicode="&#xf026;" glyph-name="angle-right" horiz-adv-x="347" d="M340 411.429c0-4.571-2.286-9.714-5.714-13.143l-266.286-266.286c-3.429-3.429-8.571-5.714-13.143-5.714s-9.714 2.286-13.143 5.714l-28.571 28.571c-3.429 3.429-5.714 8-5.714 13.143 0 4.571 2.286 9.714 5.714 13.143l224.571 224.571-224.571 224.571c-3.429 3.429-5.714 8.571-5.714 13.143s2.286 9.714 5.714 13.143l28.571 28.571c3.429 3.429 8.571 5.714 13.143 5.714s9.714-2.286 13.143-5.714l266.286-266.286c3.429-3.429 5.714-8.571 5.714-13.143z" />
<glyph unicode="&#xf027;" glyph-name="angle-down" horiz-adv-x="658" d="M614.286 539.429c0-4.571-2.286-9.714-5.714-13.143l-266.286-266.286c-3.429-3.429-8.571-5.714-13.143-5.714s-9.714 2.286-13.143 5.714l-266.286 266.286c-3.429 3.429-5.714 8.571-5.714 13.143s2.286 9.714 5.714 13.143l28.571 28.571c3.429 3.429 8 5.714 13.143 5.714 4.571 0 9.714-2.286 13.143-5.714l224.571-224.571 224.571 224.571c3.429 3.429 8.571 5.714 13.143 5.714s9.714-2.286 13.143-5.714l28.571-28.571c3.429-3.429 5.714-8.571 5.714-13.143z" />
<glyph unicode="&#xf028;" glyph-name="angle-up" horiz-adv-x="658" d="M614.286 283.429c0-4.571-2.286-9.714-5.714-13.143l-28.571-28.571c-3.429-3.429-8-5.714-13.143-5.714-4.571 0-9.714 2.286-13.143 5.714l-224.571 224.571-224.571-224.571c-3.429-3.429-8.571-5.714-13.143-5.714s-9.714 2.286-13.143 5.714l-28.571 28.571c-3.429 3.429-5.714 8.571-5.714 13.143s2.286 9.714 5.714 13.143l266.286 266.286c3.429 3.429 8.571 5.714 13.143 5.714s9.714-2.286 13.143-5.714l266.286-266.286c3.429-3.429 5.714-8.571 5.714-13.143z" />
<glyph unicode="&#xf029;" glyph-name="check" d="M954.857 636.571c0-14.286-5.714-28.571-16-38.857l-491.429-491.429c-10.286-10.286-24.571-16-38.857-16s-28.571 5.714-38.857 16l-284.571 284.571c-10.286 10.286-16 24.571-16 38.857s5.714 28.571 16 38.857l77.714 77.714c10.286 10.286 24.571 16 38.857 16s28.571-5.714 38.857-16l168-168.571 374.857 375.429c10.286 10.286 24.571 16 38.857 16s28.571-5.714 38.857-16l77.714-77.714c10.286-10.286 16-24.571 16-38.857z" />
<glyph unicode="&#xf02a;" glyph-name="close" horiz-adv-x="805" d="M741.714 204.571c0-14.286-5.714-28.571-16-38.857l-77.714-77.714c-10.286-10.286-24.571-16-38.857-16s-28.571 5.714-38.857 16l-168 168-168-168c-10.286-10.286-24.571-16-38.857-16s-28.571 5.714-38.857 16l-77.714 77.714c-10.286 10.286-16 24.571-16 38.857s5.714 28.571 16 38.857l168 168-168 168c-10.286 10.286-16 24.571-16 38.857s5.714 28.571 16 38.857l77.714 77.714c10.286 10.286 24.571 16 38.857 16s28.571-5.714 38.857-16l168-168 168 168c10.286 10.286 24.571 16 38.857 16s28.571-5.714 38.857-16l77.714-77.714c10.286-10.286 16-24.571 16-38.857s-5.714-28.571-16-38.857l-168-168 168-168c10.286-10.286 16-24.571 16-38.857z" />
<glyph unicode="&#xf02b;" glyph-name="clock" horiz-adv-x="878" d="M512 649.143v-256c0-10.286-8-18.286-18.286-18.286h-182.857c-10.286 0-18.286 8-18.286 18.286v36.571c0 10.286 8 18.286 18.286 18.286h128v201.143c0 10.286 8 18.286 18.286 18.286h36.571c10.286 0 18.286-8 18.286-18.286zM749.714 448c0 171.429-139.429 310.857-310.857 310.857s-310.857-139.429-310.857-310.857 139.429-310.857 310.857-310.857 310.857 139.429 310.857 310.857zM877.714 448c0-242.286-196.571-438.857-438.857-438.857s-438.857 196.571-438.857 438.857 196.571 438.857 438.857 438.857 438.857-196.571 438.857-438.857z" />
<glyph unicode="&#xf02c;" glyph-name="comment" d="M511.999 813.714c-237.714 0-438.857-133.714-438.857-292.571 0-85.143 57.143-166.286 156-222.286l49.714-28.571-15.429-54.857c-10.857-40.571-25.143-72-40-98.286 57.714 24 110.286 56.571 157.143 97.714l24.571 21.714 32.571-3.429c24.571-2.857 49.714-4.571 74.286-4.571 237.714 0 438.857 133.714 438.857 292.571s-201.143 292.571-438.857 292.571zM1023.999 521.143c0-202.286-229.143-365.714-512-365.714-28 0-56 1.714-82.857 4.571-74.857-66.286-164-113.143-262.857-138.286-20.571-5.714-42.857-9.714-65.143-12.571h-2.857c-11.429 0-21.714 9.143-24.571 21.714v0.571c-2.857 14.286 6.857 22.857 15.429 33.143 36 40.571 77.143 74.857 104 170.286-117.714 66.857-193.143 170.286-193.143 286.286 0 202.286 229.143 365.714 512 365.714v0c282.857 0 512-163.429 512-365.714z" />
<glyph unicode="&#xf02d;" glyph-name="ellipsis-h" horiz-adv-x="805" d="M219.643 502.857v-109.714c0-30.286-24.571-54.857-54.857-54.857h-109.714c-30.286 0-54.857 24.571-54.857 54.857v109.714c0 30.286 24.571 54.857 54.857 54.857h109.714c30.286 0 54.857-24.571 54.857-54.857zM512.214 502.857v-109.714c0-30.286-24.571-54.857-54.857-54.857h-109.714c-30.286 0-54.857 24.571-54.857 54.857v109.714c0 30.286 24.571 54.857 54.857 54.857h109.714c30.286 0 54.857-24.571 54.857-54.857zM804.785 502.857v-109.714c0-30.286-24.571-54.857-54.857-54.857h-109.714c-30.286 0-54.857 24.571-54.857 54.857v109.714c0 30.286 24.571 54.857 54.857 54.857h109.714c30.286 0 54.857-24.571 54.857-54.857z" />
<glyph unicode="&#xf02e;" glyph-name="write" horiz-adv-x="866" d="M207.571 88.286l52 52-134.286 134.286-52-52v-61.143h73.143v-73.143h61.143zM506.428 618.571c0 7.429-5.143 12.571-12.571 12.571-3.429 0-6.857-1.143-9.714-4l-309.714-309.714c-2.857-2.857-4-6.286-4-9.714 0-7.429 5.143-12.571 12.571-12.571 3.429 0 6.857 1.143 9.714 4l309.714 309.714c2.857 2.857 4 6.286 4 9.714zM475.571 728.286l237.714-237.714-475.429-475.429h-237.714v237.714zM865.856 673.429c0-19.429-8-38.286-21.143-51.429l-94.857-94.857-237.714 237.714 94.857 94.286c13.143 13.714 32 21.714 51.429 21.714s38.286-8 52-21.714l134.286-133.714c13.143-13.714 21.143-32.571 21.143-52z" />
<glyph unicode="&#xf02f;" glyph-name="chevron-left" horiz-adv-x="640" d="M205.824 448l381.088 387.137c28.118 28.564 28.118 74.876 0 103.44s-73.706 28.564-101.823 0l-432-438.857c-28.118-28.564-28.118-74.876 0-103.44l432-438.857c28.118-28.564 73.706-28.564 101.823 0s28.118 74.876 0 103.44l-381.088 387.137z" />
<glyph unicode="&#xf030;" glyph-name="chevron-right" horiz-adv-x="640" d="M434.177 448l-381.088-387.137c-28.118-28.564-28.118-74.876 0-103.44s73.706-28.564 101.823 0l432 438.857c28.118 28.564 28.118 74.876 0 103.44l-432 438.857c-28.118 28.564-73.706 28.564-101.823 0s-28.118-74.876 0-103.44l381.088-387.137z" />
<glyph unicode="&#xf031;" glyph-name="times-circle" horiz-adv-x="960" d="M697.714 318.857c0 9.714-4 18.857-10.857 25.714l-103.429 103.429 103.429 103.429c6.857 6.857 10.857 16 10.857 25.714s-4 19.429-10.857 26.286l-51.429 51.429c-6.857 6.857-16.571 10.857-26.286 10.857s-18.857-4-25.714-10.857l-103.429-103.429-103.429 103.429c-6.857 6.857-16 10.857-25.714 10.857s-19.429-4-26.286-10.857l-51.429-51.429c-6.857-6.857-10.857-16.571-10.857-26.286s4-18.857 10.857-25.714l103.429-103.429-103.429-103.429c-6.857-6.857-10.857-16-10.857-25.714s4-19.429 10.857-26.286l51.429-51.429c6.857-6.857 16.571-10.857 26.286-10.857s18.857 4 25.714 10.857l103.429 103.429 103.429-103.429c6.857-6.857 16-10.857 25.714-10.857s19.429 4 26.286 10.857l51.429 51.429c6.857 6.857 10.857 16.571 10.857 26.286zM918.857 448c0-242.286-196.571-438.857-438.857-438.857s-438.857 196.571-438.857 438.857 196.571 438.857 438.857 438.857 438.857-196.571 438.857-438.857z" />
<glyph unicode="&#xf032;" glyph-name="reply" d="M867.556 892.445h-711.111c-48.889 0-88.889-40-88.889-88.889v-800l177.778 177.778h622.222c48.889 0 88.889 40 88.889 88.889v533.333c0 48.889-40 88.889-88.889 88.889z" />
<glyph unicode="&#xf033;" glyph-name="thumbs-up" horiz-adv-x="924" d="M813.885 391.938c56.063 0 84.094 168.188 0 168.188h-168.188c168.188 280.313 45.691 336.375 0 336.375 0-142.399-209.394-301.056-420.469-364.407v-448.5h-56.063v448.5h56.063v28.031h-112.125c-30.834 0-56.063-37.842-56.063-84.094v-336.375c0-46.252 25.228-84.094 56.063-84.094h112.125v28.031c238.827-24.948 155.574-84.094 392.438-84.094 56.063 0 112.125 28.031 112.125 84.094 56.063 0 84.094 140.156 56.063 140.156 56.063 0 91.943 168.188 28.031 168.188z" />
<glyph unicode="&#xf034;" glyph-name="exclamation" horiz-adv-x="366" d="M292.571 246.857v-128c0-20-16.571-36.571-36.571-36.571h-146.286c-20 0-36.571 16.571-36.571 36.571v128c0 20 16.571 36.571 36.571 36.571h146.286c20 0 36.571-16.571 36.571-36.571zM309.714 850.286l-16-438.857c-0.571-20-17.714-36.571-37.714-36.571h-146.286c-20 0-37.143 16.571-37.714 36.571l-16 438.857c-0.571 20 15.429 36.571 35.429 36.571h182.857c20 0 36-16.571 35.429-36.571z" />
<glyph unicode="&#xf035;" glyph-name="star" d="M512 152.421l316.416-190.821-83.713 359.884 279.297 242.023-368.178 31.591-143.822 339.301-143.82-339.301-368.18-31.591 279.297-242.023-83.713-359.884z" />
<glyph unicode="&#xf036;" glyph-name="star-o" d="M1024 563.507l-368.178 31.591-143.822 339.301-143.82-339.301-368.18-31.591 279.297-242.023-83.713-359.884 316.416 190.874 316.416-190.874-83.711 359.884 279.295 242.023zM512 248.525l-192.667-116.226 50.995 219.188-170.137 147.354 224.256 19.251 87.552 206.645 87.552-206.643 224.254-19.251-170.086-147.354 50.995-219.188-192.715 116.224z" />
<glyph unicode="&#xf037;" glyph-name="star-half" d="M1024 563.507l-368.178 31.591-143.822 339.301-143.82-339.301-368.18-31.591 279.297-242.023-83.713-359.884 316.416 190.874 316.416-190.823-83.711 359.884 279.295 241.973zM512 248.525v476.212l87.552-206.643 224.254-19.251-170.086-147.354 50.995-219.188-192.715 116.224z" />
<glyph unicode="&#xf038;" glyph-name="isearch" d="M761.204 240.418l174.175-174.175c11.494-11.494 11.494-30.129 0-41.623s-30.129-11.494-41.623 0l-174.175 174.175c-67.773-58.228-155.913-93.416-252.271-93.416-213.905 0-387.31 173.405-387.31 387.31s173.405 387.31 387.31 387.31c213.905 0 387.31-173.405 387.31-387.31 0-96.358-35.188-184.498-93.416-252.271zM467.31 164.966c180.997 0 327.724 146.727 327.724 327.724s-146.727 327.724-327.724 327.724c-180.997 0-327.724-146.727-327.724-327.724s146.727-327.724 327.724-327.724zM434.907 760.713c16.391 1.442 30.847-10.677 32.289-27.068s-10.677-30.847-27.068-32.289c-20.799-1.829-40.964-7.081-59.943-15.512-15.654-6.954-30.401-16.027-43.882-26.975-48.495-39.381-77.545-100.157-77.545-166.179 0-16.454-13.339-29.793-29.793-29.793s-29.793 13.339-29.793 29.793c0 84.004 37.167 161.76 99.569 212.435 17.535 14.239 36.773 26.076 57.257 35.175 24.953 11.083 51.522 18.004 78.91 20.413z" />
<glyph unicode="&#xf039;" glyph-name="diagnose" d="M0 768.101c0 70.637 57.249 127.899 128.136 127.899h767.728c70.768 0 128.136-57.412 128.136-127.899v-640.202c0-70.637-57.249-127.899-128.136-127.899h-767.728c-70.768 0-128.136 57.412-128.136 127.899v640.202zM64 768.101v-640.202c0-35.177 28.752-63.899 64.136-63.899h767.728c35.517 0 64.136 28.585 64.136 63.899v640.202c0 35.177-28.752 63.899-64.136 63.899h-767.728c-35.517 0-64.136-28.585-64.136-63.899zM135.454 38.602c88.949 77.577 172.103 107.309 226.586 125.902 28.591 9.853 50.1 10.785 93.651 8.678 31.242-1.166 40.872-0.231 43.785 1.62l5.116 2.929c7.827 4.014 14.435 8.778 20.236 14.517 5.963 5.996 11.044 12.914 15.144 20.631-23.843 11.371-44.962 28.008-60.722 47.357l-2.896 3.289-2.798 3.407c-18.996 24.828-31.739 54.7-37.288 86.165-30.315 10.576-57.604 29.831-78.715 55.374l-4.3 5.262c-16.2 21.19-28.062 46.012-34.514 72.279-2.72-1.847-5.356-3.905-7.889-6.168l-20.839-28.494c-3.92-7.207-5.946-19.868-7.653-51.844-0.076-1.137-0.076-1.137-0.152-2.288-0.365-5.497-0.542-8.116-0.773-11.294-2.48-34.122-6.361-56.849-16.446-80.714-23.727-56.456-99.993-142.664-186.836-227.49l-46.151 31.506c64 82.773 149.99 163.684 173.986 220.781 9.371 22.176 10.819 48.395 12.515 73.769 1.634 30.718 3.475 59.792 18.142 83.018l25.94 35.468c24.865 24.757 57.238 38.894 91.060 39.442l16.383-7.308 6.868-17.791 2.958-30.741c4.075-19.596 12.598-38.026 24.244-53.26l2.71-3.266c18.328-22.176 43.565-37.067 70.663-40.607l19.714-24.209c0.931-28.731 10.55-56.937 27.202-78.702l2.896-3.289c12.949-15.85 29.519-28.069 47.847-35.171l19.404-4.865 14.997-10.232 3.889-19.116c-5.689-33.459-20.521-63.217-43.213-86.033-11.005-10.894-23.003-19.459-36.407-26.333-21.927-13.932-50.453-12.675-80.489-11.556-24.12 1.165-48.612 2.284-70.415-5.23-55.211-18.842-101.46-39.997-190.893-103.997l-56.546 38.602zM931.581 852.025c-12.090 0.209-28.038-2.167-47.844-7.129-91.531-82.528-166.329-135.136-222.84-154.478-25.030-8.34-47.656-9.95-81.957-8.857-2.617 0.083-4.705 0.158-9.183 0.325-0.87 0.032-0.87 0.032-2.315 0.089-30.114 1.39-40.348 0.427-43.219-1.406l-3.101-1.98-3.307-1.612c-6.928-3.376-12.909-7.71-19.051-14.078-22.121-22.255-31.95-57.254-24.814-90.296 3.454-15.383 9.516-28.689 15.938-37.149l3.744-4.463c12.264-14.984 27.899-24.074 44.475-26.54l52.625-7.828 1.917-53.169c0.812-22.517 8.634-43.841 21.855-60.084 8.346-10.339 18.976-18.036 30.638-22.581 23.142-8.689 48.414-3.642 68.001 14.005l20.861 28.524c4.017 7.411 6.132 20.346 7.971 52.629 0.090 1.648 0.090 1.648 0.25 4.307 2.421 40.040 5.827 62.801 16.844 89.498 25.020 59.238 86.275 135.153 178.882 224.39 16.266 12.419 23.615 21.038 22.048 25.857-0.143 0.44-0.081 16.78-0.034 25.936l64.011-58.835c-110.608-101.221-181.892-185.29-205.95-242.249-9.205-22.313-10.715-48.098-12.225-73.632-1.758-31.015-3.786-60.066-18.39-83.292l-25.94-35.468c-37.545-37.57-90.708-49.651-138.824-31.586-22.175 8.633-42.179 22.77-57.942 42.297-22.031 27.064-34.711 61.824-36.014 97.978-32.394 4.819-62.286 22.062-84.585 49.309l-3.206 3.814c-14.108 18.362-23.996 40.264-29.395 64.314-11.791 54.584 4.344 111.681 41.869 149.433 10.839 11.259 23.003 19.961 36.407 26.493 21.782 13.909 50.433 12.79 80.613 11.396 24.058-0.891 48.612-1.987 70.27 5.23 44.454 15.216 109.697 60.774 190.609 132.715 19.279 17.141 31.474-7.935 52.463 12.149l47.844-43.975z" />
<glyph unicode="&#xf03a;" glyph-name="consultation" d="M0 768.318c0 70.517 57.249 127.682 128.136 127.682h767.728c70.768 0 128.136-57.097 128.136-127.682v-512.637c0-70.517-57.249-127.682-128.136-127.682h-767.728c-70.768 0-128.136 57.097-128.136 127.682v512.637zM64 768.318v-512.637c0-35.158 28.635-63.682 64.136-63.682h767.728c35.541 0 64.136 28.512 64.136 63.682v512.637c0 35.158-28.635 63.682-64.136 63.682h-767.728c-35.541 0-64.136-28.512-64.136-63.682zM192 32c0 17.673 14.57 32 31.738 32h576.525c17.528 0 31.738-14.204 31.738-32 0-17.673-14.57-32-31.738-32h-576.525c-17.528 0-31.738 14.204-31.738 32zM512 576c-53.019 0-96 42.981-96 96s42.981 96 96 96c53.019 0 96-42.981 96-96s-42.981-96-96-96zM512 640c17.673 0 32 14.327 32 32s-14.327 32-32 32c-17.673 0-32-14.327-32-32s14.327-32 32-32zM704 384c0-17.673-14.327-32-32-32s-32 14.327-32 32c0 70.692-57.308 128-128 128s-128-57.308-128-128c0-17.673-14.327-32-32-32s-32 14.327-32 32c0 106.039 85.961 192 192 192s192-85.961 192-192zM192 320h64c17.673 0 32-14.327 32-32s-14.327-32-32-32h-64c-17.673 0-32 14.327-32 32s14.327 32 32 32zM384 320h64c17.673 0 32-14.327 32-32s-14.327-32-32-32h-64c-17.673 0-32 14.327-32 32s14.327 32 32 32zM576 320h64c17.673 0 32-14.327 32-32s-14.327-32-32-32h-64c-17.673 0-32 14.327-32 32s14.327 32 32 32zM768 320h64c17.673 0 32-14.327 32-32s-14.327-32-32-32h-64c-17.673 0-32 14.327-32 32s14.327 32 32 32z" />
<glyph unicode="&#xf03b;" glyph-name="overview" d="M0 704.318c0 70.517 57.249 127.682 128.136 127.682h767.728c70.768 0 128.136-57.097 128.136-127.682v-512.637c0-70.517-57.249-127.682-128.136-127.682h-767.728c-70.768 0-128.136 57.097-128.136 127.682v512.637zM64 704.318v-512.637c0-35.158 28.635-63.682 64.136-63.682h767.728c35.541 0 64.136 28.512 64.136 63.682v512.637c0 35.158-28.635 63.682-64.136 63.682h-767.728c-35.541 0-64.136-28.512-64.136-63.682zM64 704h896v-64h-896v64zM320 576v-192h-192v192h192zM192 512v-64h64v64h-64zM608 576v-192h-192v192h192zM480 512v-64h64v64h-64zM896 576v-192h-192v192h192zM768 512v-64h64v64h-64z" />
<glyph unicode="&#xf03c;" glyph-name="review" d="M120 762.888c0 73.985 63.021 133.112 140.155 133.112h503.691c77.047 0 140.155-59.107 140.155-133.112v-629.777c0-73.985-63.021-133.112-140.155-133.112h-503.691c-77.047 0-140.155 59.107-140.155 133.112v629.777zM176 762.888v-629.777c0-42.228 37.247-77.112 84.155-77.112h503.691c46.977 0 84.155 34.881 84.155 77.112v629.777c0 42.228-37.247 77.112-84.155 77.112h-503.691c-46.977 0-84.155-34.881-84.155-77.112zM649.487 322.813l8.734-22.099 61.243 51.387c11.846 9.94 29.507 8.394 39.447-3.451s8.394-29.507-3.451-39.447l-65.167-54.682c-28.942-24.284-68.435-14.158-82.322 20.979l-10.563 26.728c-5.684 14.382 1.366 30.648 15.748 36.332s30.648-1.366 36.332-15.748zM649.487 182.813l8.734-22.099 61.243 51.387c11.846 9.94 29.507 8.394 39.447-3.451s8.394-29.507-3.451-39.447l-65.167-54.682c-28.942-24.284-68.435-14.158-82.322 20.979l-10.563 26.728c-5.684 14.382 1.366 30.648 15.748 36.332s30.648-1.366 36.332-15.748zM260 448c0 15.463 12.458 28 27.815 28h448.371c15.362 0 27.815-12.428 27.815-28 0-15.463-12.458-28-27.815-28h-448.371c-15.362 0-27.815 12.428-27.815 28zM260 308c0 15.463 12.759 28 27.871 28h224.259c15.393 0 27.871-12.428 27.871-28 0-15.463-12.759-28-27.871-28h-224.259c-15.393 0-27.871 12.428-27.871 28zM260 168c0 15.463 12.759 28 27.871 28h224.259c15.393 0 27.871-12.428 27.871-28 0-15.463-12.759-28-27.871-28h-224.259c-15.393 0-27.871 12.428-27.871 28zM316 756h392c30.928 0 56-25.072 56-56v-84c0-30.928-25.072-56-56-56h-392c-30.928 0-56 25.072-56 56v84c0 30.928 25.072 56 56 56zM316 700v-84h392v84h-392z" />
<glyph unicode="&#xf03d;" glyph-name="logo" horiz-adv-x="2389" d="M2109.781 579.072l-217.429-597.333h176.128v17.067h36.864v-49.152h-303.104v26.965h-1.707l218.624 601.6h-298.837v33.621h617.813v17.067h36.864v-49.152l-265.216-0.683zM1802.581 906.752h454.656v17.067h36.864v-49.152h-491.861l0.341 32.085zM860.16 230.912h94.208v499.712h-20.48v32.768h446.464v17.067h40.96v-49.152h-20.48v-417.792l-81.92-81.92v499.029h-282.624v-98.304h196.608v17.067h40.96v-49.152h-237.568v-98.304h196.608v17.067h40.96v-50.517h-237.568v-98.304h196.608v17.067h40.96v-49.152h-237.568v-106.496h438.272v17.067h40.96v-49.152h-655.36v31.403zM1265.664 890.368h208.896v17.067h40.96v-49.835h-249.856v32.768zM1134.592 857.6h-274.432v32.768h274.432v69.632h81.92v-109.909l-81.92-81.92v89.429zM0-31.232h40.96v892.928h-40.96v32.768h614.4v17.067h40.96v-49.835h-535.893v-892.928h494.933v17.067h40.96v-49.835h-655.36v32.768zM394.752 345.6h125.781l129.024-299.008h-133.291l-124.928 290.133-102.4-290.133h-88.747l184.491 520.875h-138.923v-229.888l-81.92 81.92v384.853h81.92v-40.96h368.64v17.067h40.96v-49.152h-184.32v-49.493l-81.92-81.92v130.731h-143.36v-131.072h368.64v17.067h40.96v-49.152h-181.931l-78.677-221.867zM1135.104 148.992l-164.864-212.992h-106.325l164.864 212.992h106.325zM1368.235 120.32l144.725-184.32h-152.405l-143.701 183.125 1.536 1.195h149.845zM2204.501 161.28l88.064-212.992h-131.243l-88.405 212.992h131.584z" />
</font>
</defs>
</svg>
